<?xml version="1.0" encoding="utf-8"?>
<!-- Generator: Adobe Illustrator 25.2.1, SVG Export Plug-In . SVG Version: 6.00 Build 0)  -->
<svg version="1.1" id="Layer_1" xmlns="http://www.w3.org/2000/svg" xmlns:xlink="http://www.w3.org/1999/xlink" x="0px" y="0px"
	 viewBox="0 0 61.9 64.2" style="enable-background:new 0 0 61.9 64.2;" xml:space="preserve">
<style type="text/css">
	.st0{fill:#A38CFF;}
</style>
<g id="Layer_2_1_">
	<g id="Layer_1-2">
		<path class="st0" d="M49.9,64.2C49,64.1,48,64,47,63.9c-3.9-0.4-7.7-1.2-11.4-2.3c-1.2-0.3-2.4-0.7-3.6-1.1
			c-1.2-0.4-2.4-1-3.6-1.7c-3.6-2.2-7.1-4.5-10.5-7c-2.4-1.7-4.7-3.5-6.9-5.4l-1.3-1.2c-1.5-1.4-2.8-3-3.8-4.7
			c-1.1-1.9-2.1-4-2.9-6.1c-1.2-3.2-2.2-6.5-2.8-9.9C0.2,24,0.1,23.5,0,23c-0.1-1,0-2,0.4-3c0.4-1.1,0.9-2.1,1.6-3
			c0.8-1.1,1.5-2.1,2.4-3.1c1.6-2,3.3-3.9,4.9-5.8c2.4-2.8,5.5-5,9-6.3c2.2-0.9,4.5-1.5,6.8-1.7c0.6-0.1,1.2,0,1.8,0.1
			c1.3,0.2,2.6,0.5,3.9,0.8C31.9,1.2,33,1.5,34.1,2c3.2,1.3,6.2,2.8,9.1,4.6c1,0.6,1.9,1.3,2.9,2c0.6,0.4,1.1,1,1.6,1.6
			c0.7,1,1.4,2,1.9,3c1.3,2.3,2.5,4.7,3.6,7.1c1.8,3.8,3.4,7.8,5,11.8c0.4,1.1,0.8,2.2,1.1,3.4c0.8,3,1.5,6,1.9,9
			c0.3,1.6,0.4,3.2,0.6,4.8c0.2,2.1-0.2,4.2-1,6.2c-1,2.3-2.4,4.3-4.2,6.1c-0.6,0.5-1.2,1-1.8,1.5c-1.2,0.8-2.6,1.3-4.1,1.3
			L49.9,64.2L49.9,64.2z M52.4,38.8c0-0.9-0.1-1.6-0.1-2.3c-0.2-1.9-0.4-3.8-0.7-5.7c-0.4-2.4-1.1-4.7-2-7c-0.8-2-2-3.9-3.6-5.4
			c-1.1-1-2.3-1.9-3.5-2.7c-2-1.3-4.1-2.4-6.3-3.3c-3-1.3-6.2-2.3-9.4-2.9c-2.1-0.5-4.3-0.2-6.2,0.8c-0.4,0.2-0.9,0.4-1.3,0.7
			c-2.3,1.3-4.4,2.9-6.4,4.7c-0.6,0.6-1.2,1.2-1.8,1.8c-0.7,0.8-1.2,1.7-1.4,2.7c-0.4,1.5-0.4,3-0.2,4.5c0.1,1,0.4,1.9,0.6,2.9
			c0.7,2.7,1.6,5.3,2.6,7.9c0.2,0.4,0.4,0.8,0.6,1.2c0.4,0.7,0.9,1.4,1.4,2c2.5,3,5.1,5.9,7.9,8.7c1.8,1.8,3.6,3.4,5.6,4.9
			c0.7,0.5,1.3,1,2,1.4c1.2,0.7,2.5,1.2,3.9,1.2c1.1,0,2.2-0.1,3.2-0.2c1.9-0.4,3.8-0.9,5.6-1.6c1.2-0.5,2.4-1.1,3.6-1.7
			c1.1-0.6,2-1.5,2.6-2.5c0.9-1.4,1.6-2.8,2.2-4.3C52.3,42.7,52.6,40.7,52.4,38.8z"/>
	</g>
</g>
</svg>
